<svg xmlns:dc="http://purl.org/dc/elements/1.1/" xmlns:cc="http://creativecommons.org/ns#" xmlns:rdf="http://www.w3.org/1999/02/22-rdf-syntax-ns#" xmlns:svg="http://www.w3.org/2000/svg" xmlns="http://www.w3.org/2000/svg" viewBox="0 0 200 200" height="32" width="32" xml:space="preserve" id="svg2" version="1.1" style="font-size: 32px;"><metadata id="metadata8"><rdf:rdf><cc:work rdf:about=""><dc:format>image/svg+xml</dc:format><dc:type rdf:resource="http://purl.org/dc/dcmitype/StillImage"></dc:type></cc:work></rdf:rdf></metadata><defs id="defs6"></defs><g transform="matrix(1.3333333,0,0,-1.3333333,0,200)" id="g10"><g transform="scale(0.1)" id="g12"><path id="path14" style="fill:#f68712;fill-opacity:1;fill-rule:evenodd;stroke:none" d="m 532.078,1277.52 c -17.133,-31.31 -11.109,-50.4 -14.906,-82.8 134.437,-16.01 271.832,-17.97 397.601,-28.61 29.536,-2.5 60.469,-3.43 89.207,-0.73 1.19,23.6 9.55,50.97 10.36,74.96 -166.164,40.44 -330.332,41.73 -482.262,37.18 z m 523.832,-12.57 c -7.18,-44.89 -3.97,-101.23 -33.66,-139.28 -36.879,-2.7 -72.516,6.81 -109.75,9.03 -17.102,1.01 -34.426,-3.54 -51.445,-3.38 -24.91,0.2 -47.785,7.31 -72.84,9.7 -27.277,2.65 -55.324,-4.52 -81.395,-3.79 -67.418,1.8 -126.507,28.32 -189.308,11.53 -7.793,6.36 -26.414,6.81 -29.84,15.55 -6.051,8.22 3.875,7.91 5.535,19.05 -30.684,26.32 -1.121,85.83 9.426,134.83 8.437,-0.26 17.18,-1.07 22.101,5.06 62.723,-12.82 119.59,-3.71 182.086,-4.84 11.7,-0.22 23.313,-5.06 35.043,-5.62 53.801,-2.59 110.305,-5.68 170.547,-12.94 32.883,-3.99 64.836,-17.72 95.49,-18.62 11.13,-0.34 36.19,-2.93 48.01,-16.28"></path><path id="path16" style="fill:#f68712;fill-opacity:1;fill-rule:evenodd;stroke:none" d="m 423.344,517.938 c -3.91,-28.708 -8.547,-54.86 -5.844,-83.157 40.469,-13.332 76.246,-18.109 113.879,-26.269 2.332,24.468 10.598,67.297 6.859,94.359 -39.883,7.871 -79.175,14.766 -114.894,15.067 z m 152.668,-19.239 c -2.871,-31.75 -9.903,-65.808 -6.809,-94.301 53.918,-9.757 108.059,-20 156.883,-20.437 7.426,31.949 9.844,62.18 11.644,95.199 -55.07,8.66 -109.156,15.5 -161.718,19.539 z M 591.34,661.66 c -12.016,-36.789 -12.883,-82.82 -16.938,-121.164 58.055,-10.828 113.629,-17.176 168.055,-21.402 8.18,37.215 16.367,78.699 18.449,118.433 -59.234,8.274 -120.461,27.563 -169.566,24.133 z m -20.477,205.512 c -34.144,8.496 -73.429,11.25 -103.672,14.121 C 443.008,766.68 441.379,663.66 428.969,552.988 c 33.781,3.203 77.121,-11.086 111.855,-9.621 8.27,44.192 9.164,84.375 13.949,126.672 -32.679,8.645 -110.222,3.887 -93.574,40.984 12.016,26.692 73.801,-6.55 96.813,1.665 10.406,54.835 6.75,102.003 12.851,154.484 z m 203.153,-27.024 c -59.774,4.832 -119.172,26.239 -170.809,19.911 -2.504,-50.512 -8.301,-102.856 -10.125,-153.028 58.781,-11.023 116.523,-20.195 173.168,-27.453 5.73,55.266 18.391,114.301 7.766,160.57 z M 931.367,427.41 c 10.828,58.719 8.887,128.84 18.504,189.563 10.637,67.5 11.027,123.355 19.942,186.836 -2.84,1.347 -2.528,4.496 -5.086,6.046 -3.293,-1.664 -10.039,-4.132 -12.43,-3.234 -37.152,13.922 -93.098,25.844 -136.887,26.07 0.281,-49.953 -13.074,-113.57 -11.367,-157.222 50.969,-9.422 85.762,-12.656 131.184,-22.129 12.261,-9.961 14.507,-31.445 5.82,-43.008 -40.141,3.231 -93.859,23.035 -144.453,23.738 -5.508,-36.504 -12.18,-81.394 -16.34,-119.109 39.797,-7.676 84.797,-7.871 122.117,-21.801 3.742,-8.57 2.902,-19.68 -0.164,-32.058 -33.391,-13.641 -82.129,16.148 -126.68,13.949 -2.214,-35.942 -9.082,-71.379 -5.312,-97.051 47.168,-6.129 95.566,-14.551 139.98,-15.531 10.828,17.492 16.907,41.761 21.172,64.941 z m -440.941,628.28 c -8.692,-46.43 -17.692,-90.924 -18.477,-134.491 38.328,-3.347 70.453,-14.058 102.793,-9.281 9.567,52.398 9.481,94.982 13.395,140.602 -35.949,7.25 -65.34,2.47 -97.711,3.17 z m 129.793,-3.34 c 0.449,-45.93 -6.574,-95.963 -12.539,-145.409 59.879,-14.933 110.504,-15.75 173.187,-27.476 5.578,53.941 5.742,104.988 6.504,156.315 -59.484,9.76 -112.277,19.38 -167.152,16.57 z m 207.957,-26.16 c -8.684,-53.295 -7.707,-101.303 -9.531,-150.862 42.949,-3.375 97.539,-12.738 150.835,-25.562 10.012,49.328 7.004,91.488 7.317,135.476 -36.992,17.068 -102.774,37.128 -148.621,40.948 z m 175.254,26.97 c 16.39,-92.84 2.98,-210.176 -6.45,-321.488 -2.632,-31.399 -2.156,-64.043 -6.804,-94.336 -5,-32.793 -13.242,-64.406 -16.504,-96.137 -7.625,-74.609 2.644,-164.219 -57.039,-219.597 -52.199,8.777 -101.328,12.039 -152.641,19.207 -9.019,-20.418 -33.773,-15.321 -37.824,4.132 -76.473,9.508 -160.988,17.11 -250.848,36.348 -36.672,7.813 -76.472,17.242 -100.547,40.691 9.676,22.981 3.856,47.372 7.036,71.329 4.441,33.859 14.144,66.371 17.711,100.343 6.671,63.203 6.386,125.215 13.367,195.668 5.371,53.832 19.207,108.844 25.027,164.703 4.359,41.77 16.93,97.617 20.082,147.827 11.84,10.24 31.582,0.31 38.082,-11.11 104.961,2.08 217.406,5.2 333.817,-19.18 44.187,-9.26 89.187,-27.99 135.652,-30.32 2.219,14.03 22.043,22.24 37.883,11.92"></path><path id="path18" style="fill:#f68712;fill-opacity:1;fill-rule:evenodd;stroke:none" d="m 769.617,139.629 c -3.711,3.262 -7.078,6.793 -10.824,10.019 -4.637,-9.367 5.094,-16.039 10.824,-10.019 z m -171.054,26.859 c -16.508,13.442 -32.485,36.633 -51.805,42.614 19.265,-11.051 26.383,-46.692 51.805,-42.614 z m 290.421,-50.136 c 2.254,6.546 -3.293,8.859 -8.093,11.527 -1.36,-6.07 1.062,-10.098 8.093,-11.527 z m 70.481,-2.141 c -4.777,3.289 -6.633,8.18 -12.961,10.629 -3.035,-6.5 7.676,-14.602 12.961,-10.629 z M 646.887,214.34 c -2.223,-6.559 3.312,-8.84 8.097,-11.539 2.11,4.699 2.082,8.238 0.985,11.187 -3.625,1.242 -6.692,1.473 -9.082,0.352 z m 103.441,-62.192 c -3.543,23.403 -48.375,31.954 -32.961,60.051 -10.941,3.711 -17.523,-0.508 -27.226,1 13.218,-24.07 40.64,-40.437 60.187,-61.051 z m -2.137,55.633 c 6.914,-5.652 8.942,-14.011 20.2,-17.32 -0.032,10.848 10.652,11.98 7.644,18.418 -8.074,-2.527 -22.219,5.93 -27.844,-1.098 z M 1055.4,120.672 c 2.2,7.828 -10.83,16.457 -16.59,13.988 5.82,-4.5 5.62,-12.301 16.59,-13.988 z m -221.482,50.719 c -12.316,8.597 -11.953,24.218 -16.762,36.98 -5.625,-2.672 -15.945,3.149 -20.867,-0.812 -1.836,-18.758 29.246,-28.918 37.629,-36.168 z m 19.793,28.629 c 19.441,-19.52 38.43,-39.301 64.16,-55.348 -6.523,19.488 -37.687,25.476 -25.117,55.457 -14.258,2.16 -30.402,7.93 -39.043,-0.109 z m 60.781,-3.938 c 9.168,-6.801 13.731,-16.152 25.938,-21.293 -2.617,10.121 5.539,11.301 8.23,20.531 -7.39,3.039 -26.375,6.969 -34.168,0.762 z m 74.617,-19.434 c -3.125,5.403 -4.05,11.973 -6.265,17.883 -5.149,0.789 -8.918,-1.011 -15.395,2.199 -0.476,-9.761 17.551,-18.699 21.66,-20.082 z m 34.871,17.372 c 0.37,-9.649 12.15,-18.36 22.56,-24.911 29.7,-18.73 59.8,-44.5 82.12,-33.07 -33.09,20.359 -57.22,72.449 -104.68,57.981 z m 55.21,32.101 c 28.89,-17.891 47.17,-51.051 81.06,-60.269 -32.59,27.668 -44.49,66.738 -75.43,95.339 -7.23,-14.632 -1.32,-22.05 -5.63,-35.07 z m 82.53,47.098 c 2.89,-6.117 7.98,-11.008 5.62,-20.02 -7.62,-10.629 -20.25,-13.019 -29.06,-5.289 6.45,-17.769 18.15,-32.68 32.43,-46.121 6.11,26.41 17.67,55.859 10.35,74.961 -4.5,-4.762 -13.69,-0.91 -19.34,-3.531 z m -59.63,118.242 c 31.33,-28.992 46.77,-66.68 85.75,-91.461 4.95,11 1.44,17.352 5.91,28.102 -38.13,24.046 -53.13,60.859 -87.02,87.238 -7.26,-5.281 -3.01,-16.141 -4.64,-23.879 z m 28.35,42.219 c 20.19,-21.602 51.72,-50.758 67.41,-67.782 4.5,15.661 3.86,35.473 6.95,55.321 -10.46,1.781 -14.88,-7.481 -24.86,-6.52 -22.75,23.012 -41.15,48.422 -64.07,71.371 -12.72,-19.461 3.38,-40.441 14.57,-52.39 z m -11.87,108.925 c 16.34,-41.367 56.93,-69.386 84.18,-104.765 7.82,30.379 12.4,58.898 5.23,81.055 -14.87,-7.809 -0.9,-12.625 -5.85,-28.094 -39.71,-21.321 -52.54,45.984 -83.56,51.804 z m 92.59,2.903 c 7.31,15.859 -9.33,18.562 -9.54,30.293 -29.16,19.512 -36.56,50.957 -69.52,68.371 19.75,-30.18 50.2,-67.754 79.06,-98.664 z m -75.23,143.437 c 29.92,-22.082 47.35,-50.984 74.64,-74.472 6.38,19.597 -16.2,34.082 -27.59,47.019 -12.55,14.199 -26.39,33.496 -40.62,41.633 0.26,1.316 0.42,2.605 -1.51,2.727 -6.45,-3.547 -2.68,-10.469 -4.92,-16.907 z m 65.97,6.016 c -17.63,23.484 -32.65,48.375 -55.6,68.934 -3.71,-1.883 -4.78,-8.575 -6.44,-14.172 24.52,-14.965 43.03,-42.692 62.04,-54.762 z m 14.38,96.695 c 5.62,11.953 1.48,18.621 3.79,28.742 -23.57,23.176 -34.62,53.215 -60.74,75.012 -22.37,-57.289 41.9,-67.019 56.95,-103.754 z m -56.73,206.914 c 24.04,-23.566 44.21,-58.582 69.81,-75.371 2.72,10.965 -6.3,15.469 -14.74,20.332 -9.4,25.032 -25.94,46.125 -50.52,62.859 -0.9,-3.71 -2.38,-6.441 -4.55,-7.82 z m 56.03,11.2 c -18.79,18.73 -25.94,43.82 -49.03,60.16 -1.46,-9.7 -0.79,-18.2 -1.04,-27.26 26.49,1.69 35.78,-28.18 50.07,-32.9 z m -45.43,111.85 c 26.92,-21.41 38.59,-60.47 67.67,-74.76 3.58,10.5 -6.58,25.29 -13.13,33.64 -15.22,19.38 -36.4,38.95 -52.35,56.51 -3.23,-6.47 -1.43,-10.24 -2.19,-15.39 z m 2.96,49.59 c 37.83,-2.03 36.56,-40.11 64.77,-53.25 4.92,34.15 -39.01,56.67 -63.74,80.47 -3.96,-11.08 0.43,-17.55 -1.03,-27.22 z m 0.5,41.11 c 9.28,0.42 15.73,5.91 20.36,14.72 -4.44,9.42 -8.43,19.09 -17.71,25.81 -2.99,-14.65 -2.39,-27.34 -2.65,-40.53 z m -118.52,128.54 c -51.11,11.13 -110.188,18.78 -164.106,27.14 -149.175,23.09 -305.89,18.42 -435.519,16.67 C 418.48,1285.25 405.121,1173.23 378.852,1058.36 352.418,942.828 323.418,827.543 306.379,714.813 283.563,564.18 255.387,414.441 243.988,271.988 c 15.223,-0.726 20.055,17.403 34.852,17.383 45.703,-8.402 90.223,-5.09 136.351,-12.141 45.477,-7.019 93.657,-22.679 136.914,-26.109 35.239,-2.812 71.075,-1.43 106.79,-3.57 36.027,-2.141 72.703,3.199 107.328,-1.442 5.261,-0.668 11.531,-6.07 16.304,-7.031 15.84,-3.137 34.184,2.344 50.825,1.274 71.832,-4.59 139.332,-16.09 205.308,-11.622 16.8,56.45 26.53,114.809 26.25,168.961 25.36,137.856 30.57,276.262 46.83,412.954 8.12,68.421 11.8,137.328 13.69,204.695 2.76,98.82 16.23,194.11 9.9,286.11 -18,21.18 -42.61,31.22 -80.24,39.41 z M 1185.73,119.441 c -35.38,-31.7027 -90.34,-26.3199 -140.17,-32.5894 -42.31,-5.3008 -82.208,-15.2227 -126.505,-9.0703 -55.801,7.7695 -111.86,17 -169.567,24.1597 -25.117,3.098 -50.57,12.071 -75.828,15.188 -24.269,2.961 -48.234,1.383 -71.972,4.871 -52.004,7.68 -106.176,21.738 -156.915,20.441 -15.101,-0.39 -26.742,-3.203 -48.71,-1.871 -22.551,1.371 -42.86,-5.91 -64.715,-1.781 -27.309,35.32 -56.078,69.832 -95.086,98.781 -1.914,5.45 -6.614,9.391 -4.16,17.231 -8.922,3.129 -10.664,-4.5 -17.528,2.82 -3.683,69.051 14.739,160.91 28.403,239.43 10.578,60.769 23.628,133.254 34.597,205.539 9.114,60.125 14.172,119.949 27.196,180.105 18.394,85.024 43.652,165.575 59.035,258.025 2.562,15.27 5.652,30.04 8.718,45.65 2.364,12.15 1.633,25.68 4.137,37.77 13.637,66.6 37.067,131.23 49.668,194.23 14.117,10.52 29.164,1.88 43.848,1.01 53.492,-3.09 109.547,5.91 167.008,6.44 30.007,0.29 64.125,-3.4 96.468,-7.45 109.715,-13.61 239.317,-23.63 352.148,-42.87 31.11,-5.31 56.04,-26.38 83.62,-35.77 38.17,-48.94 53.1,-110.62 99.34,-155.08 -1.35,-10.21 4.47,-16.48 9.25,-23.35 18.56,-148.5 -39.54,-339.073 -20.25,-487.179 -10.15,-22.605 -8.55,-47.871 -8.24,-75.566 0.23,-19.637 -1.88,-37.996 -2.69,-56.563 -5.97,-132.781 -16.21,-275.91 -61.1,-422.551"></path></g></g></svg>