<svg xmlns:dc="http://purl.org/dc/elements/1.1/" xmlns:cc="http://creativecommons.org/ns#" xmlns:rdf="http://www.w3.org/1999/02/22-rdf-syntax-ns#" xmlns:svg="http://www.w3.org/2000/svg" xmlns="http://www.w3.org/2000/svg" id="svg7" height="32" width="32" version="1.0" preserveAspectRatio="xMidYMid meet" viewBox="0 0 36 37" style="font-size: 32px; color: rgb(19, 34, 122);">
    <metadata id="metadata11" style="fill: rgb(19, 34, 122);">
        <rdf:rdf style="fill: rgb(19, 34, 122);">
            <cc:work rdf:about="" style="fill: rgb(19, 34, 122);">
                <dc:format style="fill: rgb(19, 34, 122);">image/svg+xml</dc:format>
                <dc:type rdf:resource="http://purl.org/dc/dcmitype/StillImage" style="fill: rgb(19, 34, 122);"></dc:type>
            </cc:work>
        </rdf:rdf>
    </metadata>
    <defs id="defs3" style="fill: rgb(19, 34, 122);">
        <pattern y="0" x="0" height="6" width="6" patternUnits="userSpaceOnUse" id="EMFhbasepattern" style="fill: rgb(19, 34, 122);"></pattern>
    </defs>
    <path id="path5" d="  M 30.060713,21.162742   C 30.060713,35.211115 30.060713,35.211115 30.060713,35.211115   C 30.060713,36.313342 30.060713,36.313342 30.060713,36.313342   C 28.958487,36.313342 28.958487,36.313342 28.958487,36.313342   C 24.890271,36.313342 24.890271,36.313342 24.890271,36.313342   C 24.890271,25.230959 24.890271,25.230959 24.890271,25.230959   C 24.890271,24.489461 24.148773,23.747963 23.026506,23.747963   C 18.216792,23.747963 18.216792,23.747963 18.216792,23.747963   C 17.475295,23.747963 16.753838,24.489461 16.753838,25.230959   C 16.753838,36.313342 16.753838,36.313342 16.753838,36.313342   C 5.6313736,36.313342 5.6313736,36.313342 5.6313736,36.313342   C 4.5291475,36.313342 4.5291475,36.313342 4.5291475,36.313342   C 4.5291475,35.211115 4.5291475,35.211115 4.5291475,35.211115   C 4.5291475,21.162742 4.5291475,21.162742 4.5291475,21.162742   C 1.2024285,21.162742 1.2024285,21.162742 1.2024285,21.162742   C 0.080161902,18.577521 0.080161902,18.577521 0.080161902,18.577521   C 16.373068,1.2024285 16.373068,1.2024285 16.373068,1.2024285   C 17.475295,0.080161902 17.475295,0.080161902 17.475295,0.080161902   C 18.597561,1.2024285 18.597561,1.2024285 18.597561,1.2024285   C 34.870427,18.577521 34.870427,18.577521 34.870427,18.577521   C 33.407473,21.162742 33.407473,21.162742 33.407473,21.162742   C 30.060713,21.162742 30.060713,21.162742 30.060713,21.162742   z  M 27.475492,3.0461523   C 28.597759,3.0461523 28.597759,3.0461523 28.597759,3.0461523   C 28.597759,0.8216595 28.597759,0.8216595 28.597759,0.8216595   C 22.665778,0.8216595 22.665778,0.8216595 22.665778,0.8216595   C 22.665778,3.0461523 22.665778,3.0461523 22.665778,3.0461523   C 23.768004,3.0461523 23.768004,3.0461523 23.768004,3.0461523   C 23.768004,4.889876 23.768004,4.889876 23.768004,4.889876   C 27.475492,9.3388616 27.475492,9.3388616 27.475492,9.3388616   L 27.475492,3.0461523   z " style="fill: rgb(19, 34, 122); fill-rule: evenodd; fill-opacity: 1; stroke: none;"></path>
</svg>